<svg xmlns="http://www.w3.org/2000/svg" width="1200" height="630" viewBox="0 0 1200 630"><g transform="translate(600 225)" fill="none" stroke="#0f172a" stroke-width="5" stroke-linecap="round" stroke-linejoin="round"><path d="M-110 65 H110 M-110 90 H110 M-70 65 V90 M0 65 V90 M70 65 V90" stroke="#0071e3"/><path d="M-65-55 0-25 65-55 M-65-55-90 0-45 25 0-25 45 25 90 0 65-55 M-45 25 0 40 45 25 M0-25 V40"/><circle cx="-65" cy="-55" r="7" fill="#0f172a" stroke="none"/><circle cx="0" cy="-25" r="7" fill="#0f172a" stroke="none"/><circle cx="65" cy="-55" r="7" fill="#0f172a" stroke="none"/><circle cx="-90" cy="0" r="7" fill="#0f172a" stroke="none"/><circle cx="-45" cy="25" r="7" fill="#0f172a" stroke="none"/><circle cx="0" cy="40" r="7" fill="#0f172a" stroke="none"/><circle cx="45" cy="25" r="7" fill="#0f172a" stroke="none"/><circle cx="90" cy="0" r="7" fill="#0f172a" stroke="none"/></g></svg>
